<?xml version="1.0" standalone="no"?><!DOCTYPE svg PUBLIC "-//W3C//DTD SVG 1.1//EN" "http://www.w3.org/Graphics/SVG/1.1/DTD/svg11.dtd"><svg t="1616682496613" class="icon" viewBox="0 0 1024 1024" version="1.1" xmlns="http://www.w3.org/2000/svg" p-id="2053" xmlns:xlink="http://www.w3.org/1999/xlink" width="80" height="80"><defs><style type="text/css"></style></defs><path d="M839.4 390.9c0-180.9-147.2-328.1-328.1-328.1S183.2 210 183.2 390.9c0 146.1 96 270.1 228.2 312.5-67.6 35.9-113.7 107-113.7 188.7v67.4h427.1l0.1-27c0.1-19 0.1-24.5 0-30.2V892c0-81.7-46.1-152.8-113.7-188.7C743.4 661 839.4 537 839.4 390.9zM670.7 892.1v13.2H352v-13.2c0-87.8 71.5-159.3 159.3-159.3s159.4 71.5 159.4 159.3zM511.3 664.7c-151 0-273.8-122.8-273.8-273.8S360.3 117 511.3 117s273.9 122.8 273.9 273.8-122.9 273.9-273.9 273.9z" fill="#000000" p-id="2054"></path><path d="M690.9 216.3c-10-11.2-27.2-12.1-38.3-2.1-11.2 10-12.1 27.2-2.1 38.3 4.5 5.1 109.6 125.5-1.8 279-8.8 12.1-6.1 29.1 6 37.9 4.8 3.5 10.4 5.2 15.9 5.2 8.4 0 16.7-3.9 22-11.2 136.8-188.6-0.3-345.6-1.7-347.1z" fill="#000000" p-id="2055"></path></svg>